<svg width="14" height="16" viewBox="0 0 14 16" fill="none" xmlns="http://www.w3.org/2000/svg">
<path d="M3.99988 5.1133V4.46664C3.99988 2.96664 5.20655 1.4933 6.70655 1.3533C7.12333 1.31236 7.54407 1.35912 7.94169 1.4906C8.33931 1.62207 8.70499 1.83533 9.01521 2.11667C9.32543 2.398 9.57332 2.74117 9.7429 3.12408C9.91249 3.507 10 3.92118 9.99988 4.33997V5.25997M1.53988 11.04L1.69322 12.2866C1.83988 13.5933 2.31988 14.6666 4.99988 14.6666H8.99988C11.6799 14.6666 12.1599 13.5933 12.2999 12.2866L12.7999 8.28664C12.9799 6.65997 12.5132 5.3333 9.66655 5.3333H4.33322C1.48655 5.3333 1.01988 6.65997 1.19988 8.28664" stroke="white" stroke-width="1.5" stroke-miterlimit="10" stroke-linecap="round" stroke-linejoin="round"/>
</svg>
