<svg width="24" height="24" viewBox="0 0 24 24" fill="none" xmlns="http://www.w3.org/2000/svg">
<path d="M14.659 20.0099L13.139 21.5299C12.519 22.1499 11.499 22.1499 10.879 21.5299L9.359 20.0099C9.099 19.7499 8.589 19.5399 8.229 19.5399H6.079C5.199 19.5399 4.479 18.8199 4.479 17.9399V15.7899C4.479 15.4299 4.269 14.9199 4.009 14.6599L2.489 13.1399C1.869 12.5199 1.869 11.4999 2.489 10.8799L4.009 9.35991C4.269 9.09991 4.479 8.58991 4.479 8.22991V6.07991C4.479 5.19991 5.199 4.47991 6.079 4.47991M9.34 3.98891L10.86 2.46891C11.48 1.84891 12.5 1.84891 13.12 2.46891L14.64 3.98891C14.9 4.24891 15.41 4.45891 15.77 4.45891H17.92C18.8 4.45891 19.52 5.17891 19.52 6.05891V8.20891C19.52 8.56891 19.73 9.07891 19.99 9.33891L21.51 10.8589C22.13 11.4789 22.13 12.4989 21.51 13.1189L19.99 14.6389C19.73 14.8989 19.52 15.4089 19.52 15.7689V17.9189C19.52 18.7989 18.8 19.5189 17.92 19.5189M9 14.9999L15 8.99991" stroke="#5FB567" stroke-width="1.5" stroke-linecap="round" stroke-linejoin="round"/>
<path d="M14.495 14.5H14.504M9.495 9.5H9.503" stroke="#5FB567" stroke-width="2" stroke-linecap="round" stroke-linejoin="round"/>
</svg>
