<svg width="14" height="15" viewBox="0 0 14 15" fill="none" xmlns="http://www.w3.org/2000/svg">
<path d="M11.4001 0.901367C12.1334 0.901367 12.7334 1.50137 12.7334 2.2347V3.70137C12.7334 4.2347 12.4001 4.90137 12.0667 5.2347L9.20006 7.76803C8.80006 8.10137 8.53339 8.76803 8.53339 9.30137V12.168C8.53339 12.568 8.26672 13.1014 7.93339 13.3014L7.00006 13.9014C6.13339 14.4347 4.93339 13.8347 4.93339 12.768V9.2347C4.93339 8.76803 4.66672 8.16803 4.40006 7.8347L1.86672 5.16803C1.53339 4.8347 1.26672 4.2347 1.26672 3.8347V2.30137C1.26672 1.50137 1.86672 0.901367 2.60006 0.901367H8.60006M6.28672 0.901367L3.00006 6.16803" stroke="white" stroke-width="1.5" stroke-miterlimit="10" stroke-linecap="round" stroke-linejoin="round"/>
</svg>
