<svg width="20" height="20" viewBox="0 0 20 20" fill="none" xmlns="http://www.w3.org/2000/svg">
<path d="M18.8 10.2083C18.8 9.55834 18.7417 8.93334 18.6333 8.33334H10V11.8792H14.9333C14.7208 13.025 14.075 13.9958 13.1042 14.6458V16.9458H16.0667C17.8 15.35 18.8 13 18.8 10.2083Z" fill="#4285F4"/>
<path d="M10 19.1667C12.475 19.1667 14.55 18.3458 16.0667 16.9458L13.1042 14.6458C12.2833 15.1958 11.2333 15.5208 10 15.5208C7.61252 15.5208 5.59168 13.9083 4.87085 11.7417H1.80835V14.1167C3.31668 17.1125 6.41668 19.1667 10 19.1667Z" fill="#34A853"/>
<path d="M4.87087 11.7417C4.68754 11.1917 4.58337 10.6042 4.58337 10C4.58337 9.39583 4.68754 8.80833 4.87087 8.25833V5.88333H1.80837C1.16671 7.16071 0.832809 8.57051 0.833375 10C0.833375 11.4792 1.18754 12.8792 1.80837 14.1167L4.87087 11.7417Z" fill="#FBBC05"/>
<path d="M10 4.47918C11.3458 4.47918 12.5542 4.94168 13.5042 5.85001L16.1333 3.22084C14.5458 1.74168 12.4708 0.833344 10 0.833344C6.41668 0.833344 3.31668 2.88751 1.80835 5.88334L4.87085 8.25834C5.59168 6.09168 7.61252 4.47918 10 4.47918Z" fill="#EA4335"/>
</svg>
