<svg width="109" height="100" viewBox="0 0 109 100" fill="none" xmlns="http://www.w3.org/2000/svg">
<path d="M59 26.8375V40.7125V26.8375ZM94.7916 63.2083C97.8333 68.2917 95.4166 74.875 89.7916 76.75C69.8696 83.3749 48.3386 83.3749 28.4166 76.75C22.4166 74.75 20.125 68.6667 23.4166 63.2083L28.7083 54.375C30.1666 51.9583 31.3333 47.6667 31.3333 44.875V36.125C31.3278 32.4773 32.0416 28.8643 33.4337 25.4927C34.8258 22.1211 36.869 19.0571 39.4463 16.4758C42.0237 13.8946 45.0847 11.8468 48.4542 10.4496C51.8237 9.05246 55.4356 8.33331 59.0833 8.33331C74.3333 8.33331 86.8333 20.8333 86.8333 36.0833V44.8333C86.8333 45.5833 86.9166 46.4167 87.0416 47.2917" fill="#E9DAFC"/>
<path d="M72.875 78.4167C72.875 86.0417 66.625 92.2917 59 92.2917C55.2083 92.2917 51.7083 90.7084 49.2083 88.2084C46.7083 85.7084 45.125 82.2084 45.125 78.4167" fill="#E9DAFC"/>
<path d="M50 26.8375V40.7125M85.7916 63.2083C88.8333 68.2917 86.4166 74.875 80.7916 76.75C60.8696 83.3749 39.3386 83.3749 19.4166 76.75C13.4166 74.75 11.125 68.6667 14.4166 63.2083L19.7083 54.375C21.1666 51.9583 22.3333 47.6667 22.3333 44.875V36.125C22.3278 32.4773 23.0416 28.8643 24.4337 25.4927C25.8258 22.1211 27.869 19.0571 30.4463 16.4758C33.0237 13.8946 36.0847 11.8468 39.4542 10.4496C42.8237 9.05246 46.4356 8.33331 50.0833 8.33331C65.3333 8.33331 77.8333 20.8333 77.8333 36.0833V44.8333C77.8333 45.5833 77.9166 46.4167 78.0416 47.2917" stroke="#050505" stroke-width="1.5" stroke-miterlimit="10" stroke-linecap="round"/>
<path d="M63.875 78.4167C63.875 86.0417 57.625 92.2917 50 92.2917C46.2083 92.2917 42.7083 90.7084 40.2083 88.2084C37.7083 85.7084 36.125 82.2084 36.125 78.4167" stroke="#050505" stroke-width="1.5" stroke-miterlimit="10"/>
</svg>
