<svg width="20" height="22" viewBox="0 0 20 22" fill="none" xmlns="http://www.w3.org/2000/svg">
<path d="M18.5 6.04C18.5 2.01 17.56 1 13.78 1H6.22C2.44 1 1.5 2.01 1.5 6.04V17.3C1.5 19.96 2.96 20.59 4.73 18.69L4.74 18.68C5.56 17.81 6.81 17.88 7.52 18.83L8.53 20.18C9.34 21.25 10.65 21.25 11.46 20.18L12.47 18.83C13.19 17.87 14.44 17.8 15.26 18.68C17.04 20.58 18.49 19.95 18.49 17.29V10M6 6H14M7 10H13" stroke="#050505" stroke-opacity="0.5" stroke-width="1.5" stroke-linecap="round" stroke-linejoin="round"/>
</svg>
