<svg width="109" height="100" viewBox="0 0 109 100" fill="none" xmlns="http://www.w3.org/2000/svg">
<path d="M56.9167 8.33325C78.7917 8.33325 96.5 26.0416 96.5 47.9166C96.5 69.7916 78.7917 87.4999 56.9167 87.4999C35.0417 87.4999 17.3334 69.7916 17.3334 47.9166C17.3334 32.4999 26.125 19.1666 39 12.6249M100.667 91.6666L92.3334 83.3333L100.667 91.6666Z" fill="#E9DAFC"/>
<path d="M47.9167 8.33325C69.7917 8.33325 87.5 26.0416 87.5 47.9166C87.5 69.7916 69.7917 87.4999 47.9167 87.4999C26.0417 87.4999 8.33337 69.7916 8.33337 47.9166C8.33337 32.4999 17.125 19.1666 30 12.6249M91.6667 91.6666L83.3334 83.3332" stroke="#050505" stroke-width="1.5" stroke-linecap="round" stroke-linejoin="round"/>
</svg>
