<svg width="109" height="100" viewBox="0 0 109 100" fill="none" xmlns="http://www.w3.org/2000/svg">
<path d="M17.3333 33.3333C17.3333 16.6666 25.6667 8.33331 42.3333 8.33331H75.6667C92.3334 8.33331 100.667 16.6666 100.667 33.3333V54.1666C100.667 70.8333 92.3334 79.1666 75.6667 79.1666H73.5833C72.2917 79.1666 71.0417 79.7916 70.25 80.8333L64 89.1666C61.25 92.8333 56.75 92.8333 54 89.1666L47.75 80.8333C47.0833 79.9166 45.5417 79.1666 44.4167 79.1666H42.3333C25.6667 79.1666 17.3333 75 17.3333 54.1666V50" fill="#E9DAFC"/>
<path d="M75.6167 33.3333H79.825H75.6167ZM38.1667 33.3333H61.125H38.1667ZM38.1667 54.1666H63.1667H38.1667Z" fill="#E9DAFC"/>
<path d="M8.33334 33.3333C8.33334 16.6666 16.6667 8.33331 33.3333 8.33331H66.6667C83.3333 8.33331 91.6667 16.6666 91.6667 33.3333V54.1666C91.6667 70.8333 83.3333 79.1666 66.6667 79.1666H64.5833C63.2917 79.1666 62.0417 79.7916 61.25 80.8333L55 89.1666C52.25 92.8333 47.75 92.8333 45 89.1666L38.75 80.8333C38.0833 79.9166 36.5417 79.1666 35.4167 79.1666H33.3333C16.6667 79.1666 8.33334 75 8.33334 54.1666V50" stroke="#050505" stroke-width="1.5" stroke-miterlimit="10" stroke-linecap="round" stroke-linejoin="round"/>
<path d="M66.6167 33.3333H70.825M29.1667 33.3333H52.125M29.1667 54.1666H54.1667" stroke="#050505" stroke-width="1.5" stroke-linecap="round" stroke-linejoin="round"/>
</svg>
