<svg width="154" height="80" viewBox="0 0 154 80" fill="none" xmlns="http://www.w3.org/2000/svg">
<path d="M25.792 65.28C18.5387 65.28 12.7147 63.0827 8.32 58.688C3.92533 54.2507 1.728 48.5547 1.728 41.6C1.728 34.6453 3.92533 28.9707 8.32 24.576C12.7147 20.1387 18.5387 17.92 25.792 17.92C32.2773 17.92 37.5467 19.52 41.6 22.72C45.696 25.8773 48.0427 30.1227 48.64 35.456H37.632C37.0347 32.896 35.712 30.8907 33.664 29.44C31.616 27.9467 29.0133 27.2 25.856 27.2C21.6747 27.2 18.4107 28.5013 16.064 31.104C13.7173 33.664 12.544 37.1627 12.544 41.6C12.544 46.0373 13.7173 49.5573 16.064 52.16C18.4107 54.72 21.6747 56 25.856 56C29.0133 56 31.616 55.2747 33.664 53.824C35.712 52.3307 37.0347 50.304 37.632 47.744H48.64C48.0427 53.0773 45.696 57.344 41.6 60.544C37.5467 63.7013 32.2773 65.28 25.792 65.28Z" fill="white"/>
<path d="M62.032 57V12.2H71.824V57H62.032Z" fill="white"/>
<path d="M114.168 60.352C111.096 63.424 106.957 64.96 101.752 64.96C96.5467 64.96 92.3867 63.424 89.272 60.352C86.1573 57.28 84.6 53.3547 84.6 48.576C84.6 43.7973 86.1573 39.8933 89.272 36.864C92.3867 33.792 96.5467 32.256 101.752 32.256C106.957 32.256 111.096 33.792 114.168 36.864C117.283 39.8933 118.84 43.7973 118.84 48.576C118.84 53.3547 117.283 57.28 114.168 60.352ZM101.752 56.64C104.013 56.64 105.805 55.8933 107.128 54.4C108.451 52.9067 109.112 50.9653 109.112 48.576C109.112 46.1867 108.451 44.2453 107.128 42.752C105.805 41.2587 104.013 40.512 101.752 40.512C99.448 40.512 97.6347 41.2587 96.312 42.752C95.032 44.2453 94.392 46.1867 94.392 48.576C94.392 50.9653 95.032 52.9067 96.312 54.4C97.6347 55.8933 99.448 56.64 101.752 56.64Z" fill="white"/>
<path d="M148.224 56.384C149.589 56.384 150.72 56.32 151.616 56.192V64C149.739 64.3413 147.563 64.512 145.088 64.512C143.979 64.512 142.997 64.448 142.144 64.32C141.291 64.192 140.331 63.9147 139.264 63.488C138.197 63.0187 137.323 62.4 136.64 61.632C135.957 60.864 135.36 59.7547 134.848 58.304C134.379 56.8533 134.144 55.1467 134.144 53.184V40.896H129.28V33.152H134.144V24H143.936V33.152H150.912V40.896H143.936V51.136C143.936 53.2267 144.299 54.6347 145.024 55.36C145.749 56.0427 146.816 56.384 148.224 56.384Z" fill="white"/>
</svg>
